HIERARCHY
ROOT Hips
{
	OFFSET 0.00000 0.00000 0.00000
	CHANNELS 6 Xposition Yposition Zposition Zrotation Yrotation Xrotation 
	JOINT LHipJoint
	{
		OFFSET 0 0 0
		CHANNELS 3 Zrotation Yrotation Xrotation
		JOINT LeftUpLeg
		{
			OFFSET 1.70593 -1.62653 0.87602
			CHANNELS 3 Zrotation Yrotation Xrotation
			JOINT LeftLeg
			{
				OFFSET 2.32330 -6.38322 0.00000
				CHANNELS 3 Zrotation Yrotation Xrotation
				JOINT LeftFoot
				{
					OFFSET 2.45016 -6.73177 0.00000
					CHANNELS 3 Zrotation Yrotation Xrotation
					JOINT LeftToeBase
					{
						OFFSET 0.13029 -0.35798 1.96980
						CHANNELS 3 Zrotation Yrotation Xrotation
						End Site
						{
							OFFSET 0.00000 -0.00000 1.01270
						}
					}
				}
			}
		}
	}
	JOINT RHipJoint
	{
		OFFSET 0 0 0
		CHANNELS 3 Zrotation Yrotation Xrotation
		JOINT RightUpLeg
		{
			OFFSET -1.80599 -1.62652 0.87602
			CHANNELS 3 Zrotation Yrotation Xrotation
			JOINT RightLeg
			{
				OFFSET -2.45375 -6.74162 0.00000
				CHANNELS 3 Zrotation Yrotation Xrotation
				JOINT RightFoot
				{
					OFFSET -2.45828 -6.75406 0.00000
					CHANNELS 3 Zrotation Yrotation Xrotation
					JOINT RightToeBase
					{
						OFFSET -0.13801 -0.37917 1.88456
						CHANNELS 3 Zrotation Yrotation Xrotation
						End Site
						{
							OFFSET -0.00000 -0.00000 0.97281
						}
					}
				}
			}
		}
	}
	JOINT LowerBack
	{
		OFFSET 0 0 0
		CHANNELS 3 Zrotation Yrotation Xrotation
		JOINT Spine
		{
			OFFSET 0.01003 2.00576 -0.14267
			CHANNELS 3 Zrotation Yrotation Xrotation
			JOINT Spine1
			{
				OFFSET 0.00908 2.01191 0.01660
				CHANNELS 3 Zrotation Yrotation Xrotation
				JOINT Neck
				{
					OFFSET 0 0 0
					CHANNELS 3 Zrotation Yrotation Xrotation
					JOINT Neck1
					{
						OFFSET -0.05849 1.60301 0.18934
						CHANNELS 3 Zrotation Yrotation Xrotation
						JOINT Head
						{
							OFFSET 0.01775 1.59435 -0.07960
							CHANNELS 3 Zrotation Yrotation Xrotation
							End Site
							{
								OFFSET 0.01210 1.70732 -0.05248
							}
						}
					}
				}
				JOINT LeftShoulder
				{
					OFFSET 0 0 0
					CHANNELS 3 Zrotation Yrotation Xrotation
					JOINT LeftArm
					{
						OFFSET 3.15315 1.26460 0.30667
						CHANNELS 3 Zrotation Yrotation Xrotation
						JOINT LeftForeArm
						{
							OFFSET 4.97694 -0.00000 -0.00000
							CHANNELS 3 Zrotation Yrotation Xrotation
							JOINT LeftHand
							{
								OFFSET 3.14391 -0.00000 -0.00000
								CHANNELS 3 Zrotation Yrotation Xrotation
								JOINT LeftFingerBase
								{
									OFFSET 0 0 0
									CHANNELS 3 Zrotation Yrotation Xrotation
									JOINT LeftHandIndex1
									{
										OFFSET 0.59358 -0.00000 -0.00000
										CHANNELS 3 Zrotation Yrotation Xrotation
										End Site
										{
											OFFSET 0.47856 -0.00000 -0.00000
										}
									}
								}
								JOINT LThumb
								{
									OFFSET 0 0 0
									CHANNELS 3 Zrotation Yrotation Xrotation
									End Site
									{
										OFFSET 0.48587 -0.00000 0.48587
									}
								}
							}
						}
					}
				}
				JOINT RightShoulder
				{
					OFFSET 0 0 0
					CHANNELS 3 Zrotation Yrotation Xrotation
					JOINT RightArm
					{
						OFFSET -3.25568 1.35581 0.18982
						CHANNELS 3 Zrotation Yrotation Xrotation
						JOINT RightForeArm
						{
							OFFSET -4.90473 -0.00000 0.00000
							CHANNELS 3 Zrotation Yrotation Xrotation
							JOINT RightHand
							{
								OFFSET -3.21621 0.00006 -0.00004
								CHANNELS 3 Zrotation Yrotation Xrotation
								JOINT RightFingerBase
								{
									OFFSET 0 0 0
									CHANNELS 3 Zrotation Yrotation Xrotation
									JOINT RightHandIndex1
									{
										OFFSET -0.62353 -0.00000 -0.00000
										CHANNELS 3 Zrotation Yrotation Xrotation
										End Site
										{
											OFFSET -0.50270 -0.00000 -0.00000
										}
									}
								}
								JOINT RThumb
								{
									OFFSET 0 0 0
									CHANNELS 3 Zrotation Yrotation Xrotation
									End Site
									{
										OFFSET -0.51038 -0.00000 0.51038
									}
								}
							}
						}
					}
				}
			}
		}
	}
}
MOTION
Frames: 6
Frame Time: .0083333
8.182900 16.097500 -8.309500 3.395000 -4.934200 6.106800 0.000000 0.000000 0.000000 -26.245000 -7.168400 -18.445000 2.660400 10.123900 29.379000 0.709100 -7.014900 -15.076000 0.039300 1.279000 3.516800 0.000000 0.000000 0.000000 17.165300 9.594300 -27.647300 -15.123800 -19.420100 75.609300 -0.034500 2.194000 -3.417200 -0.507000 4.564200 -12.669500 -2.814400 2.254100 2.598900 -1.903600 2.809500 -2.692600 -0.567400 1.451900 -4.276000 -3.349200 -0.857800 -11.521300 6.032600 -1.483200 13.176600 2.336700 -0.424600 5.950500 0.000000 -0.000000 0.000000 -89.731400 7.190700 -5.753000 6.799000 -11.588000 -0.690700 -0.000000 -0.000000 12.787400 23.159300 -13.059500 -5.521000 -7.125000 0.000000 -0.000000 -2.865400 15.831800 1.977500 0.000000 -0.000000 0.000000 93.590200 -16.017500 14.110900 -18.465400 28.749000 -4.771000 0.000000 -0.000000 -4.611600 -26.392600 -35.463500 16.061800 7.125000 -0.000000 -0.000000 9.866600 -68.233400 -5.525000
8.193500 16.100800 -8.061500 3.665600 -4.795400 5.968300 0.000000 0.000000 0.000000 -26.857400 -6.836600 -17.017300 2.565900 9.956700 28.836600 0.775300 -6.850000 -15.732000 0.011000 0.677400 1.861400 0.000000 0.000000 0.000000 16.854900 9.868600 -29.307400 -14.928300 -19.371800 75.020500 -0.054900 3.428700 -4.487000 -0.513300 4.592300 -12.749300 -3.012400 2.190800 2.571100 -1.843000 2.722300 -2.589200 -0.384800 1.414100 -4.164300 -3.365300 -0.866700 -11.513700 5.794400 -1.462100 13.310800 2.266400 -0.432400 5.988700 -0.000000 -0.000000 0.000000 -89.864100 5.995000 -1.829600 7.364400 -12.517400 -0.808800 -0.000000 -0.000000 9.370500 23.206400 -11.969000 -5.080900 -7.125000 0.000000 -0.000000 -2.778200 17.001100 1.846700 -0.000000 -0.000000 0.000000 93.743400 -16.365100 11.733600 -16.834000 26.638500 -4.012600 0.000000 -0.000000 -2.347900 -26.393800 -36.207300 16.338500 7.125000 -0.000000 -0.000000 10.596300 -68.968100 -6.112600
8.204900 16.124000 -7.805100 3.692600 -4.599200 5.789600 0.000000 0.000000 0.000000 -27.193100 -6.572000 -15.814700 2.584700 9.990300 28.945200 0.884300 -6.706600 -16.781000 0.009800 -0.639100 -1.756300 0.000000 0.000000 0.000000 16.733600 10.160500 -30.757600 -14.703900 -19.313800 74.343200 -0.074600 4.831100 -5.525100 -0.335100 3.720200 -10.290900 -2.988800 2.160300 2.629600 -1.692300 2.688400 -2.496600 -0.240100 1.397800 -4.106600 -3.725100 -0.941300 -11.059000 6.036200 -1.530100 12.899500 2.393200 -0.475600 5.788900 0.000000 0.000000 0.000000 -89.929500 4.794500 2.124100 8.048100 -13.630800 -0.963400 -0.000000 -0.000000 6.075400 23.124400 -11.618900 -4.915700 -7.125000 0.000000 -0.000000 -2.819300 17.386500 1.850300 0.000000 0.000000 0.000000 93.820800 -16.792100 9.211900 -15.291100 24.550100 -3.346000 0.000000 -0.000000 -0.130900 -25.061800 -38.266900 16.151500 7.125000 -0.000000 -0.000000 14.752900 -70.529100 -9.056100
8.214900 16.133900 -7.549900 3.766700 -4.369200 5.703600 0.000000 0.000000 0.000000 -27.557000 -6.303200 -14.435600 2.500100 9.838200 28.454200 0.949400 -6.969200 -17.395500 0.011300 -0.685300 -1.883400 0.000000 0.000000 0.000000 16.574500 10.407500 -32.208600 -14.326100 -19.210000 73.198000 -0.107600 5.943400 -6.693200 -0.337500 3.733100 -10.326900 -3.020100 2.066400 2.581000 -1.567800 2.571400 -2.385100 -0.081700 1.340600 -3.967800 -3.682300 -0.966600 -10.993100 5.813600 -1.536800 12.814600 2.314100 -0.495100 5.749400 0.000000 0.000000 0.000000 -89.898100 3.509000 5.809000 8.723900 -14.719300 -1.128900 -0.000000 -0.000000 2.852700 23.596600 -11.806600 -5.107300 -7.125000 0.000000 -0.000000 -2.498400 17.137900 1.652800 0.000000 0.000000 0.000000 93.785600 -16.988100 6.214600 -13.766000 22.399200 -2.738300 0.000000 0.000000 2.952900 -22.903100 -38.554100 14.751900 7.125000 -0.000000 -0.000000 17.966600 -70.093200 -10.893900
8.233400 16.005400 -7.325200 3.907700 -4.143600 5.604200 0.000000 0.000000 0.000000 -28.047400 -5.861100 -13.400300 2.444900 9.737000 28.129200 1.023300 -7.268300 -18.069300 0.018900 -0.887700 -2.439800 0.000000 0.000000 0.000000 18.207300 7.909100 -33.272300 -14.128000 -19.152400 72.595100 -0.286200 -3.274100 -11.853300 -9.833600 17.315200 -58.930600 -3.151300 1.974200 2.656600 -1.487700 2.442700 -2.359200 0.079700 1.281400 -3.990200 -3.069000 -0.999300 -11.447400 4.839000 -1.554600 13.434200 1.905800 -0.535900 6.011400 -0.000000 0.000000 0.000000 -89.756200 2.466300 9.516900 9.468200 -15.903500 -1.325500 -0.000000 0.000000 -0.418600 24.295500 -11.742900 -5.249200 -7.125000 0.000000 -0.000000 -2.007700 17.137000 1.327800 -0.000000 0.000000 0.000000 93.864900 -17.226900 2.218700 -12.383100 20.376600 -2.233900 0.000000 0.000000 7.348400 -25.387400 -35.577200 15.434900 7.125000 -0.000000 -0.000000 11.294200 -68.037100 -6.281600
8.226400 16.094000 -7.045900 4.099100 -3.952000 5.507300 0.000000 0.000000 0.000000 -28.464800 -4.898400 -11.885600 2.306600 9.477400 27.300300 1.082500 -7.654000 -18.598600 0.050800 -1.455000 -4.001600 0.000000 0.000000 0.000000 16.375800 10.854800 -35.116400 -13.315300 -18.893000 70.101800 -0.271000 5.650000 -9.482000 -1.132300 6.758400 -19.001500 -3.381200 1.848400 2.829000 -1.418800 2.258100 -2.373400 0.283900 1.198300 -4.110300 -2.778200 -0.950500 -11.165400 4.480600 -1.483700 13.236200 1.749000 -0.519100 5.893300 -0.000000 -0.000000 0.000000 -89.588700 1.570800 12.786200 10.331100 -17.255800 -1.571700 -0.000000 0.000000 -3.369000 24.549900 -11.202900 -5.071400 -7.125000 0.000000 -0.000000 -1.801100 17.699500 1.168900 -0.000000 -0.000000 0.000000 93.884100 -17.576200 -1.822500 -11.129900 18.487000 -1.816900 0.000000 0.000000 11.802200 -22.745600 -34.846100 13.471100 7.125000 -0.000000 -0.000000 13.922600 -66.534300 -7.287300
